<svg width="39" height="32" viewBox="0 0 39 32" fill="none" xmlns="http://www.w3.org/2000/svg">
<path d="M37.2545 11.5559H36.6835V1.67667C36.6835 0.752173 35.9225 0 34.9871 0H31.3594C30.424 0 29.6629 0.752097 29.6629 1.67667V2.34776C28.2952 2.58107 27.2515 3.76207 27.2515 5.17946C27.2515 5.48813 27.5046 5.73838 27.817 5.73838H32.6398C32.9521 5.73838 33.2053 5.48813 33.2053 5.17946C33.2053 3.76207 32.1616 2.58115 30.7939 2.34776V1.67667C30.7939 1.36846 31.0475 1.11776 31.3594 1.11776H34.9871C35.299 1.11776 35.5526 1.36846 35.5526 1.67667V11.5559H27.1927C26.9662 10.8929 26.331 10.4143 25.5848 10.4143H24.4501C24.1378 10.4143 23.8846 10.6645 23.8846 10.9732C23.8846 11.2818 24.1377 11.5321 24.4501 11.5321H25.5848C25.8967 11.5321 26.1503 11.7828 26.1503 12.091V17.3558H19.085V12.0909C19.085 11.7827 19.3387 11.532 19.6505 11.532H21.9855C22.2978 11.532 22.551 11.2818 22.551 10.9731C22.551 10.6644 22.2979 10.4142 21.9855 10.4142H19.6505C18.9157 10.4142 18.2885 10.8784 18.0533 11.5257C16.8606 11.4309 15.6812 11.1076 14.6151 10.5805C12.8423 9.70432 10.857 9.24124 8.8741 9.24124H1.74548C0.782971 9.24131 0 10.0152 0 10.9664C0 11.9176 0.782971 12.6916 1.74548 12.6916H2.73015V19.1634C2.73015 22.2659 4.67025 24.929 7.41442 26.03V27.169C7.41442 27.499 7.14279 27.7675 6.80893 27.7675C5.85145 27.7675 5.07251 28.5373 5.07251 29.4837C5.07251 30.4301 5.85145 31.2 6.80893 31.2H9.15091C10.1084 31.2 10.8874 30.4301 10.8874 29.4837V28.3264C10.8874 27.3582 11.6844 26.5706 12.6639 26.5706H12.6668H17.2899C17.6022 26.5706 17.8554 26.3203 17.8554 26.0117C17.8554 25.703 17.6023 25.4527 17.2899 25.4527H10.2253C6.71607 25.4527 3.86115 22.6314 3.86115 19.1634V12.6916H5.88481C6.19712 12.6916 6.45031 12.4413 6.45031 12.1326C6.45031 11.824 6.19719 11.5737 5.88481 11.5737H1.74548C1.40667 11.5737 1.131 11.3013 1.131 10.9664C1.131 10.6315 1.40667 10.3591 1.74548 10.3591H8.8741C10.6823 10.3591 12.4926 10.7813 14.1092 11.5803C15.3016 12.1698 16.6204 12.532 17.954 12.6392V13.8573C16.4294 13.7475 14.9215 13.3399 13.56 12.6662C11.9503 11.8715 10.1395 11.5388 8.34859 11.5737C8.03628 11.5737 7.78309 11.824 7.78309 12.1326C7.78309 12.4413 8.03621 12.6916 8.34859 12.6916C9.95703 12.6481 11.6097 12.9529 13.0542 13.666C14.5713 14.4167 16.2545 14.8662 17.954 14.9778V20.229C17.954 20.5377 18.2071 20.7879 18.5195 20.7879H26.7158C27.0281 20.7879 27.2813 20.5377 27.2813 20.229V15.006H35.5183V19.1634C35.5183 22.6314 32.6633 25.4527 29.1541 25.4527H19.7545C19.4422 25.4527 19.189 25.703 19.189 26.0117C19.189 26.3203 19.4421 26.5706 19.7545 26.5706H26.7126H26.7155C27.695 26.5706 28.4919 27.3582 28.4919 28.3264V29.4837C28.4919 30.4301 29.2709 31.2 30.2284 31.2H32.5704C33.5279 31.2 34.3068 30.4301 34.3068 29.4837C34.3068 28.5373 33.5279 27.7675 32.5704 27.7675C32.2365 27.7675 31.9649 27.499 31.9649 27.169V26.03C34.7091 24.929 36.6492 22.2659 36.6492 19.1634V15.006H37.2545C38.217 15.006 39 14.2322 39 13.281C39 12.3297 38.217 11.5559 37.2545 11.5559ZM31.9821 4.62054H28.4747C28.7395 3.84315 29.5291 3.45626 30.2978 3.42366C31.0798 3.42359 31.7455 3.92551 31.9821 4.62054ZM10.3637 26.5705C9.98309 27.0564 9.75632 27.6657 9.75632 28.3263V29.4837C9.75632 29.8136 9.48469 30.0821 9.15083 30.0821H6.80878C6.47491 30.0821 6.20336 29.8136 6.20336 29.4837C6.20336 29.1537 6.47499 28.8852 6.80878 28.8852C7.76626 28.8852 8.54527 28.1153 8.54527 27.169V26.3829C9.14756 26.5131 9.75373 26.5756 10.3637 26.5705ZM32.5705 28.8852C32.9043 28.8852 33.1759 29.1537 33.1759 29.4837C33.1759 29.8136 32.9043 30.0821 32.5705 30.0821H30.2285C29.8946 30.0821 29.623 29.8136 29.623 29.4837V28.3263C29.623 27.6657 29.3963 27.0564 29.0156 26.5705C29.6256 26.5756 30.2318 26.5131 30.8341 26.3829V27.169C30.834 28.1153 31.613 28.8852 32.5705 28.8852ZM19.085 19.6702V18.4735H26.1503V19.6702H19.085ZM37.2545 13.8883H27.2813V12.6736H37.2545C37.5933 12.6736 37.869 12.9461 37.869 13.281C37.8691 13.6158 37.5934 13.8883 37.2545 13.8883Z" fill="#642360"/>
<path d="M30.794 8.64257V7.4941C30.794 7.18543 30.5408 6.93518 30.2285 6.93518C29.9161 6.93518 29.663 7.18543 29.663 7.4941V8.64257C29.663 8.95124 29.9161 9.20149 30.2285 9.20149C30.5408 9.20149 30.794 8.95124 30.794 8.64257Z" fill="#642360"/>
<path d="M33.52 8.86952C33.7649 8.678 33.7409 8.29736 33.52 8.07918L32.6984 7.26708C32.4775 7.04883 32.1195 7.04883 31.8986 7.26708C31.6778 7.48533 31.6778 7.83925 31.8986 8.05742L32.7203 8.86952C33.0064 9.11684 33.2515 9.07964 33.52 8.86952Z" fill="#642360"/>
<path d="M27.4647 8.86952L28.2864 8.05742C28.5072 7.83917 28.5072 7.48526 28.2864 7.26708C28.0655 7.04883 27.7076 7.04883 27.4867 7.26708L26.665 8.07918C26.4442 8.29743 26.4442 8.65135 26.665 8.86952C26.7754 8.97869 27.1162 9.1541 27.4647 8.86952Z" fill="#642360"/>
<path d="M18.522 9.20369C19.4758 9.20369 20.2517 8.43676 20.2517 7.49412C20.2517 6.55147 19.4758 5.78455 18.522 5.78455C17.5683 5.78455 16.7922 6.55147 16.7922 7.49412C16.7922 8.43676 17.5682 9.20369 18.522 9.20369ZM18.522 6.9023C18.8522 6.9023 19.1207 7.16776 19.1207 7.49412C19.1207 7.82048 18.8522 8.08593 18.522 8.08593C18.1918 8.08593 17.9232 7.82048 17.9232 7.49412C17.9232 7.16776 18.1918 6.9023 18.522 6.9023Z" fill="#642360"/>
<path d="M13.8313 5.72493C14.7851 5.72493 15.5611 4.958 15.5611 4.01536C15.5611 3.07271 14.7852 2.30579 13.8313 2.30579C12.8775 2.30579 12.1016 3.07271 12.1016 4.01536C12.1016 4.958 12.8776 5.72493 13.8313 5.72493ZM13.8313 3.42354C14.1616 3.42354 14.4301 3.689 14.4301 4.01536C14.4301 4.34172 14.1616 4.60717 13.8313 4.60717C13.5011 4.60717 13.2326 4.34172 13.2326 4.01536C13.2326 3.689 13.5011 3.42354 13.8313 3.42354Z" fill="#642360"/>
</svg>
