<svg width="40" height="40" viewBox="0 0 40 40" fill="none" xmlns="http://www.w3.org/2000/svg">
<path d="M20 40C31.0457 40 40 31.0457 40 20C40 8.95431 31.0457 0 20 0C8.95431 0 0 8.95431 0 20C0 31.0457 8.95431 40 20 40Z" fill="#1A4789"/>
<path fill-rule="evenodd" clip-rule="evenodd" d="M22.8072 8.49887C22.8072 8.49887 18.6951 8.24142 17.6409 11.99C17.6409 11.99 17.2591 13.9734 17.3115 16.3957L13.5356 16.4062V20.5751L17.3115 20.5646V31.5051H22.1246V20.5751L25.526 20.5646L25.942 16.3957L22.1246 16.3957V14.6689C22.1246 13.5493 22.7736 12.4786 24.6719 12.4786H26.4642V8.49887H22.8072Z" fill="white"/>
</svg>
