<svg width="39" height="20" viewBox="0 0 39 20" fill="none" xmlns="http://www.w3.org/2000/svg">
<path d="M38.4287 7.07325H36.6341V4.1055C36.6341 3.79104 36.3784 3.53624 36.0628 3.53624H34.2674V0.56926C34.2674 0.254801 34.0117 0 33.6962 0H28.9644C28.6488 0 28.3931 0.254801 28.3931 0.56926V7.07325H18.3475C18.0319 7.07325 17.7762 7.32805 17.7762 7.64251C17.7762 7.95696 18.0319 8.21177 18.3475 8.21177H28.3931V11.7882H10.607V8.21177H15.8575C16.173 8.21177 16.4288 7.95696 16.4288 7.64251C16.4288 7.32805 16.173 7.07325 15.8575 7.07325H10.607V0.569336C10.607 0.254877 10.3513 7.58596e-05 10.0357 7.58596e-05H5.30362C4.98804 7.58596e-05 4.73233 0.254877 4.73233 0.569336V3.53662H2.93749C2.62191 3.53662 2.3662 3.79142 2.3662 4.10588V7.07332H0.571289C0.255709 7.07332 0 7.32812 0 7.64258V12.3575C0 12.672 0.255709 12.9268 0.571289 12.9268H2.3662V15.8942C2.3662 16.2087 2.62191 16.4635 2.93749 16.4635H4.73225V19.4307C4.73225 19.7452 4.98796 20 5.30354 20H10.0356C10.3512 20 10.6069 19.7452 10.6069 19.4307V12.9268H28.3931V19.4307C28.3931 19.7452 28.6488 20 28.9644 20H33.6962C34.0117 20 34.2674 19.7452 34.2674 19.4307V16.4638H36.0628C36.3784 16.4638 36.6341 16.209 36.6341 15.8945V12.9268H38.4287C38.7443 12.9268 39 12.672 39 12.3575V7.64251C39 7.32812 38.7443 7.07325 38.4287 7.07325ZM1.14258 11.7882V8.21177H2.3662V11.7882L1.14258 11.7882ZM3.50878 15.3249V4.67514H4.73225V15.3249L3.50878 15.3249ZM8.24104 18.8614V13.5879C8.24104 13.2734 7.98533 13.0186 7.66975 13.0186C7.35417 13.0186 7.09846 13.2734 7.09846 13.5879V18.8614H5.87491V1.1386H7.09846V11.1066C7.09846 11.4211 7.35417 11.6759 7.66975 11.6759C7.98533 11.6759 8.24104 11.4211 8.24104 11.1066V1.1386H9.46443V18.8614H8.24104ZM29.5356 1.13852H30.7591V18.8615H29.5356V1.13852ZM35.4915 15.3252H34.2674V11.2402C34.2674 10.9258 34.0117 10.671 33.6962 10.671C33.3806 10.671 33.1249 10.9258 33.1249 11.2402V18.8615H31.9016V1.13852H33.1249V8.75977C33.1249 9.07423 33.3806 9.32903 33.6962 9.32903C34.0117 9.32903 34.2674 9.07423 34.2674 8.75977V4.67476H35.4915V15.3252ZM37.8574 11.7882H36.6341V8.21177H37.8574V11.7882Z" fill="#642360"/>
</svg>
