<svg width="41" height="41" viewBox="0 0 41 41" fill="none" xmlns="http://www.w3.org/2000/svg">
<path d="M41 20.5C41 9.17816 31.8218 0 20.5 0C9.17816 0 0 9.17816 0 20.5C0 31.8218 9.17816 41 20.5 41C31.8218 41 41 31.8218 41 20.5Z" fill="url(#paint0_linear_9318_546)"/>
<path d="M16.573 20.5001C16.573 18.3302 18.3311 16.5707 20.5004 16.5707C22.6697 16.5707 24.4287 18.3302 24.4287 20.5001C24.4287 22.6701 22.6697 24.4296 20.5004 24.4296C18.3311 24.4296 16.573 22.6701 16.573 20.5001ZM14.4494 20.5001C14.4494 23.8431 17.1585 26.5529 20.5004 26.5529C23.8424 26.5529 26.5514 23.8431 26.5514 20.5001C26.5514 17.1572 23.8424 14.4474 20.5004 14.4474C17.1585 14.4474 14.4494 17.1572 14.4494 20.5001ZM25.3769 14.2074C25.3767 14.4872 25.4596 14.7607 25.6149 14.9933C25.7702 15.2261 25.991 15.4074 26.2493 15.5146C26.5076 15.6218 26.792 15.6499 27.0663 15.5954C27.3406 15.5409 27.5926 15.4063 27.7905 15.2086C27.9883 15.0108 28.1231 14.7588 28.1778 14.4845C28.2325 14.2101 28.2046 13.9257 28.0976 13.6672C27.9907 13.4087 27.8095 13.1877 27.577 13.0322C27.3446 12.8767 27.0712 12.7936 26.7915 12.7935H26.7909C26.4161 12.7937 26.0566 12.9427 25.7914 13.2078C25.5263 13.4729 25.3772 13.8324 25.3769 14.2074ZM15.7396 30.0949C14.5908 30.0425 13.9663 29.8511 13.5513 29.6894C13.0011 29.4752 12.6086 29.22 12.1958 28.8077C11.7831 28.3954 11.5276 28.0031 11.3144 27.4528C11.1526 27.0379 10.9613 26.413 10.909 25.2638C10.8519 24.0213 10.8405 23.6481 10.8405 20.5002C10.8405 17.3524 10.8528 16.9802 10.909 15.7367C10.9613 14.5875 11.1541 13.9638 11.3144 13.5477C11.5286 12.9974 11.7837 12.6047 12.1958 12.1919C12.608 11.779 13.0002 11.5234 13.5513 11.3101C13.9661 11.1483 14.5908 10.9569 15.7396 10.9047C16.9818 10.8475 17.3549 10.8361 20.5004 10.8361C23.6459 10.8361 24.0195 10.8485 25.2626 10.9047C26.4115 10.957 27.0349 11.1498 27.4509 11.3101C28.0011 11.5234 28.3937 11.7796 28.8064 12.1919C29.2192 12.6041 29.4737 12.9974 29.6879 13.5477C29.8496 13.9626 30.041 14.5875 30.0932 15.7367C30.1504 16.9802 30.1618 17.3524 30.1618 20.5002C30.1618 23.6481 30.1504 24.0203 30.0932 25.2638C30.0409 26.413 29.8486 27.0377 29.6879 27.4528C29.4737 28.0031 29.2186 28.3958 28.8064 28.8077C28.3943 29.2196 28.0011 29.4752 27.4509 29.6894C27.0361 29.8512 26.4115 30.0426 25.2626 30.0949C24.0205 30.152 23.6473 30.1634 20.5004 30.1634C17.3535 30.1634 16.9814 30.152 15.7396 30.0949ZM15.6421 8.78406C14.3876 8.84117 13.5303 9.04017 12.7817 9.33153C12.0065 9.63246 11.3501 10.0361 10.6942 10.6911C10.0384 11.3461 9.63587 12.0037 9.33504 12.7792C9.04373 13.5285 8.84483 14.3855 8.78767 15.6404C8.72963 16.8972 8.71631 17.2991 8.71631 20.5001C8.71631 23.7012 8.72963 24.1031 8.78767 25.3599C8.84483 26.6148 9.04373 27.4718 9.33504 28.2211C9.63587 28.9961 10.0385 29.6544 10.6942 30.3092C11.35 30.9638 12.0065 31.367 12.7817 31.6688C13.5318 31.9602 14.3876 32.1591 15.6421 32.2163C16.8992 32.2734 17.3003 32.2876 20.5004 32.2876C23.7006 32.2876 24.1023 32.2744 25.3587 32.2163C26.6133 32.1591 27.47 31.9602 28.2191 31.6688C28.9939 31.367 29.6507 30.9642 30.3066 30.3092C30.9624 29.6542 31.3641 28.9961 31.6658 28.2211C31.9571 27.4718 32.157 26.6148 32.2132 25.3599C32.2703 24.1021 32.2836 23.7012 32.2836 20.5001C32.2836 17.2991 32.2703 16.8972 32.2132 15.6404C32.156 14.3855 31.9571 13.5281 31.6658 12.7792C31.3641 12.0042 30.9614 11.3472 30.3066 10.6911C29.6517 10.0351 28.9939 9.63246 28.2201 9.33153C27.47 9.04017 26.6132 8.84024 25.3597 8.78406C24.1032 8.7269 23.7016 8.71265 20.5013 8.71265C17.3012 8.71265 16.8992 8.72592 15.6421 8.78406Z" fill="white"/>
<defs>
<linearGradient id="paint0_linear_9318_546" x1="26.6979" y1="48.5709" x2="15.5701" y2="2.50739e-07" gradientUnits="userSpaceOnUse">
<stop stop-color="#FBE18A"/>
<stop offset="0.21" stop-color="#FCBB45"/>
<stop offset="0.38" stop-color="#F75274"/>
<stop offset="0.52" stop-color="#D53692"/>
<stop offset="0.74" stop-color="#8F39CE"/>
<stop offset="1" stop-color="#5B4FE9"/>
</linearGradient>
</defs>
</svg>
