<svg width="39" height="35" viewBox="0 0 39 35" fill="none" xmlns="http://www.w3.org/2000/svg">
<path d="M38.4287 27.2543C38.6945 26.7613 38.9998 25.8782 38.9998 25.1923V22.4559C38.9998 21.3418 38.5292 20.352 37.8049 19.7363C38.513 19.1334 38.9999 18.0194 38.9999 17.0131C38.9999 15.9047 38.5345 14.9193 37.817 14.3024V3.37805C37.817 1.51539 36.5014 0 34.8844 0H20.7446C20.4291 0 20.1734 0.294636 20.1734 0.658062C20.1734 1.02149 20.4291 1.31612 20.7446 1.31612H34.8844C35.8715 1.31612 36.6745 2.2411 36.6745 3.37805V13.7058C36.2997 13.6142 35.8406 13.616 35.4508 13.6324V4.69935C35.4508 3.61074 34.6819 2.72517 33.7369 2.72517H5.2631C4.31803 2.72517 3.54923 3.61074 3.54923 4.69935V13.6324C3.15923 13.6162 2.7006 13.6142 2.32553 13.705V3.37805C2.32553 2.2411 3.12853 1.31612 4.11557 1.31612H18.2554C18.5709 1.31612 18.8266 1.02149 18.8266 0.658062C18.8266 0.294636 18.5709 0 18.2554 0H4.11557C2.49851 0 1.18295 1.51539 1.18295 3.37805V14.3003C0.481711 14.9038 0 16.0133 0 17.0131C0 18.1283 0.471275 19.1191 1.19636 19.7353C0.471352 20.3509 0.000152344 21.3412 0.000152344 22.456V25.1924C0.000152344 25.9681 0.228363 26.6835 0.611432 27.2544H0.571289C0.255785 27.2544 0 27.549 0 27.9124V30.6377C0 31.0011 0.255785 31.2958 0.571289 31.2958H2.3662V33.3632C2.3662 33.7266 2.62199 34.0213 2.93749 34.0213H5.30354C5.61905 34.0213 5.87483 33.7266 5.87483 33.3632V31.2958H10.565C10.8805 31.2958 11.1363 31.0011 11.1363 30.6377C11.1363 30.2743 10.8805 29.9796 10.565 29.9796H1.14258V28.5705H37.8574V29.9796H13.0551C12.7396 29.9796 12.4838 30.2743 12.4838 30.6377C12.4838 31.0011 12.7396 31.2958 13.0551 31.2958H33.1251V33.3632C33.1251 33.7266 33.3808 34.0213 33.6964 34.0213H36.0624C36.378 34.0213 36.6337 33.7266 36.6337 33.3632V31.2958H38.4287C38.7443 31.2958 39 31.0011 39 30.6377V27.9124C39 27.5489 38.7443 27.2543 38.4287 27.2543ZM4.69181 4.69935C4.69181 4.33654 4.94805 4.04129 5.2631 4.04129H33.7368C34.0519 4.04129 34.3081 4.33654 34.3081 4.69935V13.6324H32.9849C33.0494 13.425 33.0845 13.2017 33.0845 12.9691V10.1499C33.0845 9.06134 32.3156 8.17576 31.3706 8.17576H23.0085C22.0635 8.17576 21.2946 9.06134 21.2946 10.1499V12.9691C21.2946 13.2017 21.3297 13.425 21.3942 13.6324H17.6056C17.67 13.425 17.7052 13.2016 17.7052 12.9689V10.1502C17.7052 9.0616 16.9364 8.17603 15.9914 8.17603H7.62922C6.68416 8.17603 5.91536 9.0616 5.91536 10.1502V12.9689C5.91536 13.2016 5.95047 13.425 6.01499 13.6324H4.69188L4.69181 4.69935ZM7.05793 12.9689V10.1502C7.05793 9.78731 7.31418 9.49215 7.62922 9.49215H15.9914C16.3064 9.49215 16.5627 9.78731 16.5627 10.1502V12.9689C16.5627 13.3318 16.3064 13.627 15.9914 13.627H7.62922C7.31418 13.627 7.05793 13.3318 7.05793 12.9689ZM2.9349 14.9485H25.9449C26.2605 14.9485 26.5162 14.6539 26.5162 14.2905C26.5162 14.2896 26.5162 14.2887 26.5162 14.2878C26.5162 14.287 26.5162 14.2861 26.5162 14.2852C26.5162 13.9218 26.2605 13.6271 25.9449 13.6271H23.0085C22.6934 13.6271 22.4372 13.332 22.4372 12.9691V10.1499C22.4372 9.78705 22.6934 9.49189 23.0085 9.49189H31.3706C31.6857 9.49189 31.9419 9.78705 31.9419 10.1499V12.9691C31.9419 13.332 31.6857 13.6271 31.3706 13.6271H28.435C28.1194 13.6271 27.8637 13.9218 27.8637 14.2852V14.2878V14.2905C27.8637 14.6539 28.1194 14.9485 28.435 14.9485H36.0651C37.0534 14.9485 37.8574 15.8747 37.8574 17.0131C37.7548 18.2712 37.1573 18.9595 36.0651 19.0777H2.9349C1.94657 19.0777 1.14258 18.1515 1.14258 17.0131C1.14258 16.4618 1.55695 14.9485 2.9349 14.9485ZM1.14273 22.4559C1.14273 21.3189 1.94573 20.394 2.93277 20.394H36.0672C37.0543 20.394 37.8573 21.3189 37.8573 22.4559V25.1923C37.8573 26.3292 37.0543 27.2542 36.0672 27.2542H2.93277C1.94573 27.2542 1.14273 26.3292 1.14273 25.1923V22.4559ZM4.73225 32.7052H3.50878V31.2958H4.73225V32.7052ZM35.4912 32.7052H34.2677V31.2958H35.4912V32.7052Z" fill="#642360"/>
</svg>
