<svg width="62" height="66" viewBox="0 0 62 66" fill="none" xmlns="http://www.w3.org/2000/svg">
<g filter="url(#filter0_d_9071_119)">
<path d="M27.797 54.4222H23.7834C21.0356 54.4222 18.6339 56.1399 18.0725 58.5065L17.2464 60.7954C17.1182 61.336 17.5123 61.8659 18.1266 61.9787C18.6965 62.0797 19.1447 61.8215 19.4711 61.2039L20.2972 58.9151C20.6398 57.4708 22.1059 56.4224 23.7834 56.4224H27.797C28.4246 56.4224 28.9333 55.9746 28.9333 55.4223C28.9333 54.8699 28.4246 54.4222 27.797 54.4222Z" fill="#642360"/>
<path d="M60.8637 31.2639H57.3895C57.9995 17.75 47.9498 11.1417 34.6779 9.41139V6.63633C36.0066 6.17929 36.9651 4.90498 36.9651 3.40837C36.9653 1.52902 35.4536 0 33.5956 0H29.0509C27.1929 0 25.6812 1.52902 25.6812 3.40837C25.6812 4.89936 26.6326 6.16967 27.9536 6.63115V9.41361C14.6886 11.1513 4.64709 17.7556 5.25682 31.2639H1.7825C0.865196 31.4303 0.537868 31.9656 0.800959 32.8699L2.05101 35.4002C2.87013 37.0532 4.51408 38.0802 6.34152 38.0802H11.3901C7.82701 40.5857 5.88235 42.1553 4.59718 46.3263L0.0599376 60.529C-0.137161 61.1087 0.167779 61.7401 0.740931 61.9395C1.29989 62.1218 1.76461 61.8922 2.1354 61.2506L6.67806 47.0319C8.51238 41.6031 11.8553 38.0802 18.2086 38.0802C22.6688 38.0802 25.0022 40.5939 25.0975 40.7565C25.2943 41.0971 25.655 41.3064 26.0449 41.3064H32.9463C34.8791 41.3064 35.7203 44.8327 32.7188 44.8327H19.4691C18.8631 44.8327 18.3719 45.3297 18.3719 45.9426C18.3719 46.5556 18.8631 47.0524 19.4691 47.0524H32.7189C34.4284 47.0524 35.9442 46.1754 36.5927 44.8654L53.4048 38.3741C54.2804 37.9652 55.439 36.6722 55.9846 37.6291C56.4963 38.5217 55.9681 39.67 55.2273 40.2054L36.4757 52.9236C35.3727 53.7321 34.0039 54.279 32.6314 54.279H27.1858C26.5798 54.279 26.0885 54.776 26.0885 55.3889C26.0885 56.0019 26.5798 56.4987 27.1858 56.4987H32.6314C34.4855 56.4987 36.3099 55.8654 37.7714 54.7152L56.465 42.039C58.1031 41.0453 58.8649 39.5403 57.8441 37.8267C59.0226 37.426 60.0156 36.5695 60.5956 35.3988L61.8451 32.8697C62.166 32.0853 62.0562 31.2639 60.8637 31.2639ZM30.148 6.83169H32.4832V9.19368H30.148V6.83169ZM29.0507 2.2199H33.5954C34.2433 2.2199 34.7704 2.75316 34.7704 3.40837C34.7704 4.06358 34.2433 4.59684 33.5954 4.59684H29.0507C28.4028 4.59684 27.8758 4.06358 27.8758 3.40837C27.8758 2.75316 28.4028 2.2199 29.0507 2.2199ZM32.9463 39.0866H26.6311C26.2223 38.5122 25.4696 38.9568 24.3723 38.0802H48.807L36.7851 42.3294C36.4018 40.4562 34.8377 39.0866 32.9463 39.0866ZM56.3048 35.8604H6.34152C4.96242 35.8604 3.95732 34.7128 3.55756 33.4838H28.9245C29.5305 33.4838 30.0217 32.9868 30.0217 32.3739C30.0217 31.7609 29.5305 31.264 28.9245 31.264H7.45373C6.78459 17.6571 17.8552 11.4143 31.3237 11.4143C44.7921 11.4143 55.8613 17.6578 55.1923 31.264H33.7072C33.1011 31.264 32.6099 31.761 32.6099 32.3739C32.6099 32.987 33.1011 33.4838 33.7072 33.4838H59.0886C58.2521 34.8971 57.7767 35.8604 56.3048 35.8604Z" fill="#642360"/>
</g>
<defs>
<filter id="filter0_d_9071_119" x="0" y="0" width="62" height="66" filterUnits="userSpaceOnUse" color-interpolation-filters="sRGB">
<feFlood flood-opacity="0" result="BackgroundImageFix"/>
<feColorMatrix in="SourceAlpha" type="matrix" values="0 0 0 0 0 0 0 0 0 0 0 0 0 0 0 0 0 0 127 0" result="hardAlpha"/>
<feOffset dy="4"/>
<feComposite in2="hardAlpha" operator="out"/>
<feColorMatrix type="matrix" values="0 0 0 0 0.392157 0 0 0 0 0.137255 0 0 0 0 0.376471 0 0 0 0.24 0"/>
<feBlend mode="normal" in2="BackgroundImageFix" result="effect1_dropShadow_9071_119"/>
<feBlend mode="normal" in="SourceGraphic" in2="effect1_dropShadow_9071_119" result="shape"/>
</filter>
</defs>
</svg>
