<svg width="39" height="34" viewBox="0 0 39 34" fill="none" xmlns="http://www.w3.org/2000/svg">
<path d="M37.2861 0H26.8704C26.5548 0 26.2991 0.350627 26.2991 0.783116C26.2991 1.2156 26.5548 1.56623 26.8704 1.56623H37.2861C37.6012 1.56623 37.8574 1.91749 37.8574 2.34935V21.9199C37.8574 22.3517 37.6012 22.7031 37.2861 22.7031H36.6341V15.323C36.6341 14.0275 35.8652 12.9736 34.9202 12.9736H12.464C12.1485 12.9736 11.8927 13.3242 11.8927 13.7567C11.8927 14.1892 12.1485 14.5399 12.464 14.5399H34.9202C35.2353 14.5399 35.4915 14.8911 35.4915 15.323V16.2168H3.50848V15.323C3.50848 14.8911 3.7648 14.5399 4.07977 14.5399H9.97395C10.2894 14.5399 10.5452 14.1892 10.5452 13.7567C10.5452 13.3242 10.2894 12.9736 9.97395 12.9736H4.07977C3.1347 12.9736 2.3659 14.0275 2.3659 15.323V22.7031H1.71387C1.39882 22.7031 1.14258 22.3517 1.14258 21.9199V2.34935C1.14258 1.91749 1.39882 1.56623 1.71387 1.56623H24.3811C24.6967 1.56623 24.9524 1.2156 24.9524 0.783116C24.9524 0.350627 24.6967 0 24.3811 0H1.71387C0.768803 0 0 1.05387 0 2.34935V21.9199C0 23.2154 0.768803 24.2693 1.71387 24.2693H37.2861C38.2311 24.2693 39 23.2154 39 21.9199V2.34935C39 1.05387 38.2311 0 37.2861 0ZM3.50848 22.7031V21.0261H18.2554C18.5709 21.0261 18.8266 20.6755 18.8266 20.243C18.8266 19.8105 18.5709 19.4599 18.2554 19.4599H3.50848V17.783H35.4915V19.4599H20.7446C20.4291 19.4599 20.1734 19.8105 20.1734 20.243C20.1734 20.6755 20.4291 21.0261 20.7446 21.0261H35.4915V22.7031H3.50848Z" fill="#642360"/>
<path d="M21.2948 4.02665V7.26979C21.2948 7.70228 21.5505 8.05291 21.8661 8.05291H28.9643C29.2799 8.05291 29.5356 7.70228 29.5356 7.26979V4.02665C29.5356 3.59416 29.2799 3.24353 28.9643 3.24353H21.8661C21.5506 3.24353 21.2948 3.59416 21.2948 4.02665ZM22.4374 4.80976H28.393V6.48668H22.4374V4.80976Z" fill="#642360"/>
<path d="M34.2675 5.6481C34.2675 4.32212 33.4805 3.24341 32.5133 3.24341C31.5461 3.24341 30.7592 4.32212 30.7592 5.6481C30.7592 6.97407 31.5461 8.05278 32.5133 8.05278C33.4805 8.05278 34.2675 6.97407 34.2675 5.6481ZM31.9017 5.6481C31.9017 5.18574 32.1761 4.80964 32.5133 4.80964C32.8505 4.80964 33.1249 5.18574 33.1249 5.6481C33.1249 6.11045 32.8505 6.48655 32.5133 6.48655C32.1761 6.48655 31.9017 6.11045 31.9017 5.6481Z" fill="#642360"/>
<path d="M19.5 25.9468C19.1845 25.9468 18.9287 26.2974 18.9287 26.7299V33.2167C18.9287 33.6492 19.1845 33.9998 19.5 33.9998C19.8156 33.9998 20.0713 33.6492 20.0713 33.2167V26.7299C20.0713 26.2974 19.8156 25.9468 19.5 25.9468Z" fill="#642360"/>
<path d="M14.7678 25.9468C14.4523 25.9468 14.1965 26.2974 14.1965 26.7299C14.3524 29.0035 13.7133 31.4422 12.1463 32.5163C11.864 32.7097 11.7496 33.1801 11.8908 33.5669C12.1111 33.9819 12.3666 34.0986 12.6572 33.9171C14.6282 32.5663 15.4978 29.6288 15.3391 26.7299C15.3391 26.2974 15.0834 25.9468 14.7678 25.9468Z" fill="#642360"/>
<path d="M8.85273 25.9468C8.53722 25.9468 8.28144 26.2974 8.28144 26.7299C8.28144 29.0694 7.34399 31.1676 6.08274 32.6629C5.85963 32.9687 5.85963 33.4646 6.08274 33.7703C6.352 34.0761 6.62135 34.0761 6.89061 33.7703C8.33422 31.869 9.42402 29.5877 9.42402 26.7298C9.42402 26.2974 9.16823 25.9468 8.85273 25.9468Z" fill="#642360"/>
<path d="M26.8536 32.5162C25.2867 31.4423 24.655 29.0067 24.8034 26.7299C24.8034 26.2974 24.5477 25.9468 24.2321 25.9468C23.9165 25.9468 23.6608 26.2974 23.6608 26.7299C23.4906 29.6391 24.3567 32.556 26.3428 33.9171C26.6334 34.0986 26.8889 33.9818 27.1092 33.5669C27.2503 33.1801 27.1359 32.7097 26.8536 32.5162Z" fill="#642360"/>
<path d="M30.7186 26.7299C30.7341 26.2979 30.4629 25.9468 30.1473 25.9468C29.8318 25.9468 29.576 26.2974 29.576 26.7299C29.576 29.5619 30.6703 31.8876 32.1095 33.7704C32.3788 34.0763 32.6481 34.0761 32.9174 33.7704C33.1405 33.4646 33.1405 32.9687 32.9173 32.6629C31.7256 31.1829 30.6512 28.6118 30.7186 26.7299Z" fill="#642360"/>
</svg>
