<svg width="62" height="66" viewBox="0 0 62 66" fill="none" xmlns="http://www.w3.org/2000/svg">
<g filter="url(#filter0_d_9071_139)">
<path d="M26.1055 22.7333C27.0072 22.7333 27.7368 21.9621 27.7368 21.011C27.7368 19.1114 29.2009 17.5666 30.9996 17.5666C31.9013 17.5666 32.6309 16.7955 32.6309 15.8444C32.6309 14.8933 31.9013 14.1221 30.9996 14.1221C27.4007 14.1221 24.4741 17.2126 24.4741 21.011C24.4741 21.9621 25.2038 22.7333 26.1055 22.7333Z" fill="#642360"/>
<path d="M2.64693 35.7879L6.72533 32.3434C8.53613 30.8278 11.0485 30.8278 12.8593 32.3434C15.8447 34.8751 20.0535 34.8751 23.039 32.3434L23.3979 32.0507C25.0782 30.6384 27.3947 30.5351 29.1729 31.7923L31.0163 33.084C33.9854 35.1679 37.8518 34.9957 40.6413 32.6363L40.9839 32.3434C42.7947 30.8279 45.3071 30.8279 47.1179 32.3434C50.1033 34.8751 54.3121 34.8751 57.2976 32.3434L61.376 28.899C62.0938 28.3134 62.208 27.2284 61.637 26.4879C61.0823 25.7301 60.0546 25.6095 59.3531 26.2123L55.2747 29.6568C53.4639 31.1723 50.9515 31.1723 49.1408 29.6568C47.3463 28.1412 45.1276 27.5384 42.9743 27.8484C43.4636 26.6601 43.7899 25.4201 43.953 24.1112H50.5764C51.4736 24.1112 52.2077 23.3362 52.2077 22.389C52.2077 21.4418 51.4736 20.6668 50.5764 20.6668H43.9367C43.6431 18.1523 42.6969 15.8617 41.2939 13.95L45.9922 8.99001C46.6285 8.31832 46.6285 7.2334 45.9922 6.56171C45.356 5.89003 44.3282 5.89003 43.6921 6.56171L38.9937 11.5217C37.1828 10.0405 35.0132 9.04173 32.6314 8.73172V1.72223C32.6314 0.775021 31.8972 0 31 0C30.1028 0 29.3687 0.775021 29.3687 1.72223V8.73172C26.9868 9.04171 24.8172 10.0405 23.0063 11.5217L18.308 6.56171C17.6718 5.89003 16.6441 5.89003 16.0078 6.56171C15.3716 7.2334 15.3716 8.31832 16.0078 8.99001L20.7061 13.95C19.3032 15.8617 18.357 18.1523 18.0633 20.6668H11.4237C10.5264 20.6668 9.7923 21.4418 9.7923 22.389C9.7923 23.3362 10.5264 24.1112 11.4237 24.1112H18.0633C18.3243 26.2984 19.0748 28.3651 20.2493 30.1734C18.5527 31.1378 16.4483 30.9657 14.8821 29.6568C11.8967 27.1251 7.68789 27.1251 4.70246 29.6568L0.624054 33.1012C-0.0936479 33.6867 -0.207958 34.7714 0.362677 35.512C0.885414 36.1905 1.9558 36.396 2.64693 35.7879ZM31 12.0556C36.3998 12.0556 40.7882 16.6884 40.7882 22.389C40.7882 25.9023 39.1405 29.1056 36.3672 31.0001C35.16 31.224 33.9039 30.9656 32.8271 30.2078L30.9837 28.9162C28.5693 27.2112 25.5676 27.039 23.0226 28.2962C21.8644 26.574 21.2119 24.5417 21.2119 22.389C21.2119 16.6884 25.6002 12.0556 31 12.0556Z" fill="#642360"/>
<path d="M61.0716 33.2366C60.5045 32.9515 59.8338 33.0297 59.3447 33.4443L55.2663 36.8887C53.4661 38.4091 50.9489 38.4091 49.1487 36.8887C46.1472 34.3542 41.9541 34.3542 38.9527 36.8887L38.6022 37.1847C36.931 38.5967 34.6066 38.7009 32.8271 37.4496L30.9823 36.1512C28.0127 34.0607 24.1446 34.239 21.3582 36.5927L21.0077 36.8887C19.2075 38.4091 16.6903 38.4091 14.8901 36.8887C11.8886 34.3542 7.69552 34.3542 4.69407 36.8887L0.615667 40.3332C0.228545 40.6595 0.00390625 41.1548 0.00390625 41.6778L0.00390625 60.2778C0.00390625 61.2289 0.733566 62 1.63527 62H60.3643C61.266 62 61.9957 61.2289 61.9957 60.2778V34.7889C61.9957 34.1271 61.6356 33.5233 61.0716 33.2366ZM58.7329 58.5555H3.26662V42.5053L6.73326 39.578C8.5335 38.0576 11.0506 38.0576 12.8509 39.578C15.8523 42.1126 20.0454 42.1126 23.0469 39.578L23.3974 39.282C25.0702 37.8684 27.3929 37.765 29.1725 39.0171L31.0173 40.3155C33.9853 42.4052 37.8534 42.2269 40.6414 39.874L40.9919 39.578C42.7921 38.0576 45.3092 38.0576 47.1095 39.578C50.1109 42.1126 54.304 42.1126 57.3055 39.578L58.7329 38.3721L58.7329 58.5555Z" fill="#642360"/>
<path d="M19.5802 46.8445C19.5802 45.8934 18.8505 45.1223 17.9488 45.1223H8.16066C7.25896 45.1223 6.5293 45.8934 6.5293 46.8445C6.5293 47.7956 7.25896 48.5667 8.16066 48.5667H17.9488C18.8505 48.5667 19.5802 47.7956 19.5802 46.8445Z" fill="#642360"/>
<path d="M24.4747 52.0112H14.6865C13.7848 52.0112 13.0552 52.7823 13.0552 53.7334C13.0552 54.6845 13.7848 55.4557 14.6865 55.4557H24.4747C25.3764 55.4557 26.1061 54.6845 26.1061 53.7334C26.1061 52.7823 25.3764 52.0112 24.4747 52.0112Z" fill="#642360"/>
<path d="M53.839 45.1223H44.0508C43.1491 45.1223 42.4194 45.8934 42.4194 46.8445C42.4194 47.7956 43.1491 48.5667 44.0508 48.5667H53.839C54.7407 48.5667 55.4703 47.7956 55.4703 46.8445C55.4703 45.8934 54.7407 45.1223 53.839 45.1223Z" fill="#642360"/>
<path d="M47.3136 52.0112H37.5254C36.6237 52.0112 35.894 52.7823 35.894 53.7334C35.894 54.6845 36.6237 55.4557 37.5254 55.4557H47.3136C48.2153 55.4557 48.9449 54.6845 48.9449 53.7334C48.9449 52.7823 48.2153 52.0112 47.3136 52.0112Z" fill="#642360"/>
</g>
<defs>
<filter id="filter0_d_9071_139" x="0" y="0" width="62" height="66" filterUnits="userSpaceOnUse" color-interpolation-filters="sRGB">
<feFlood flood-opacity="0" result="BackgroundImageFix"/>
<feColorMatrix in="SourceAlpha" type="matrix" values="0 0 0 0 0 0 0 0 0 0 0 0 0 0 0 0 0 0 127 0" result="hardAlpha"/>
<feOffset dy="4"/>
<feComposite in2="hardAlpha" operator="out"/>
<feColorMatrix type="matrix" values="0 0 0 0 0.392157 0 0 0 0 0.137255 0 0 0 0 0.376471 0 0 0 0.24 0"/>
<feBlend mode="normal" in2="BackgroundImageFix" result="effect1_dropShadow_9071_139"/>
<feBlend mode="normal" in="SourceGraphic" in2="effect1_dropShadow_9071_139" result="shape"/>
</filter>
</defs>
</svg>
