<svg width="170" height="31" viewBox="0 0 170 31" fill="none" xmlns="http://www.w3.org/2000/svg">
<g filter="url(#filter0_d_9217_346)">
<path d="M14.6442 0L17.5111 8.98278H26.7885L19.2829 14.5344L22.1498 23.5172L14.6442 17.9656L7.13866 23.5172L10.0055 14.5344L2.49997 8.98278H11.7774L14.6442 0Z" fill="#FFC571"/>
</g>
<g filter="url(#filter1_d_9217_346)">
<path d="M49.7595 0L52.6263 8.98278H61.9037L54.3982 14.5344L57.265 23.5172L49.7595 17.9656L42.2539 23.5172L45.1208 14.5344L37.6152 8.98278H46.8926L49.7595 0Z" fill="#FFC571"/>
</g>
<g filter="url(#filter2_d_9217_346)">
<path d="M84.8752 0L87.7421 8.98278H97.0194L89.5139 14.5344L92.3808 23.5172L84.8752 17.9656L77.3696 23.5172L80.2365 14.5344L72.7309 8.98278H82.0083L84.8752 0Z" fill="#FFC571"/>
</g>
<g filter="url(#filter3_d_9217_346)">
<path d="M119.99 0L122.857 8.98278H132.135L124.629 14.5344L127.496 23.5172L119.99 17.9656L112.485 23.5172L115.352 14.5344L107.846 8.98278H117.124L119.99 0Z" fill="#FFC571"/>
</g>
<g filter="url(#filter4_d_9217_346)">
<path d="M155.106 0L157.973 8.98278H167.25L159.744 14.5344L162.611 23.5172L155.106 17.9656L147.6 23.5172L150.467 14.5344L142.961 8.98278H152.239L155.106 0Z" fill="#FFC571"/>
</g>
<defs>
<filter id="filter0_d_9217_346" x="0" y="0" width="29.2886" height="30.0172" filterUnits="userSpaceOnUse" color-interpolation-filters="sRGB">
<feFlood flood-opacity="0" result="BackgroundImageFix"/>
<feColorMatrix in="SourceAlpha" type="matrix" values="0 0 0 0 0 0 0 0 0 0 0 0 0 0 0 0 0 0 127 0" result="hardAlpha"/>
<feOffset dy="4"/>
<feGaussianBlur stdDeviation="1.25"/>
<feComposite in2="hardAlpha" operator="out"/>
<feColorMatrix type="matrix" values="0 0 0 0 0.392157 0 0 0 0 0.137255 0 0 0 0 0.376471 0 0 0 1 0"/>
<feBlend mode="normal" in2="BackgroundImageFix" result="effect1_dropShadow_9217_346"/>
<feBlend mode="normal" in="SourceGraphic" in2="effect1_dropShadow_9217_346" result="shape"/>
</filter>
<filter id="filter1_d_9217_346" x="35.1152" y="0" width="29.2886" height="30.0172" filterUnits="userSpaceOnUse" color-interpolation-filters="sRGB">
<feFlood flood-opacity="0" result="BackgroundImageFix"/>
<feColorMatrix in="SourceAlpha" type="matrix" values="0 0 0 0 0 0 0 0 0 0 0 0 0 0 0 0 0 0 127 0" result="hardAlpha"/>
<feOffset dy="4"/>
<feGaussianBlur stdDeviation="1.25"/>
<feComposite in2="hardAlpha" operator="out"/>
<feColorMatrix type="matrix" values="0 0 0 0 0.392157 0 0 0 0 0.137255 0 0 0 0 0.376471 0 0 0 1 0"/>
<feBlend mode="normal" in2="BackgroundImageFix" result="effect1_dropShadow_9217_346"/>
<feBlend mode="normal" in="SourceGraphic" in2="effect1_dropShadow_9217_346" result="shape"/>
</filter>
<filter id="filter2_d_9217_346" x="70.231" y="0" width="29.2886" height="30.0172" filterUnits="userSpaceOnUse" color-interpolation-filters="sRGB">
<feFlood flood-opacity="0" result="BackgroundImageFix"/>
<feColorMatrix in="SourceAlpha" type="matrix" values="0 0 0 0 0 0 0 0 0 0 0 0 0 0 0 0 0 0 127 0" result="hardAlpha"/>
<feOffset dy="4"/>
<feGaussianBlur stdDeviation="1.25"/>
<feComposite in2="hardAlpha" operator="out"/>
<feColorMatrix type="matrix" values="0 0 0 0 0.392157 0 0 0 0 0.137255 0 0 0 0 0.376471 0 0 0 1 0"/>
<feBlend mode="normal" in2="BackgroundImageFix" result="effect1_dropShadow_9217_346"/>
<feBlend mode="normal" in="SourceGraphic" in2="effect1_dropShadow_9217_346" result="shape"/>
</filter>
<filter id="filter3_d_9217_346" x="105.346" y="0" width="29.2886" height="30.0172" filterUnits="userSpaceOnUse" color-interpolation-filters="sRGB">
<feFlood flood-opacity="0" result="BackgroundImageFix"/>
<feColorMatrix in="SourceAlpha" type="matrix" values="0 0 0 0 0 0 0 0 0 0 0 0 0 0 0 0 0 0 127 0" result="hardAlpha"/>
<feOffset dy="4"/>
<feGaussianBlur stdDeviation="1.25"/>
<feComposite in2="hardAlpha" operator="out"/>
<feColorMatrix type="matrix" values="0 0 0 0 0.392157 0 0 0 0 0.137255 0 0 0 0 0.376471 0 0 0 1 0"/>
<feBlend mode="normal" in2="BackgroundImageFix" result="effect1_dropShadow_9217_346"/>
<feBlend mode="normal" in="SourceGraphic" in2="effect1_dropShadow_9217_346" result="shape"/>
</filter>
<filter id="filter4_d_9217_346" x="140.461" y="0" width="29.2886" height="30.0172" filterUnits="userSpaceOnUse" color-interpolation-filters="sRGB">
<feFlood flood-opacity="0" result="BackgroundImageFix"/>
<feColorMatrix in="SourceAlpha" type="matrix" values="0 0 0 0 0 0 0 0 0 0 0 0 0 0 0 0 0 0 127 0" result="hardAlpha"/>
<feOffset dy="4"/>
<feGaussianBlur stdDeviation="1.25"/>
<feComposite in2="hardAlpha" operator="out"/>
<feColorMatrix type="matrix" values="0 0 0 0 0.392157 0 0 0 0 0.137255 0 0 0 0 0.376471 0 0 0 1 0"/>
<feBlend mode="normal" in2="BackgroundImageFix" result="effect1_dropShadow_9217_346"/>
<feBlend mode="normal" in="SourceGraphic" in2="effect1_dropShadow_9217_346" result="shape"/>
</filter>
</defs>
</svg>
