<svg width="40" height="40" viewBox="0 0 40 40" fill="none" xmlns="http://www.w3.org/2000/svg">
<path d="M20 40C31.0457 40 40 31.0457 40 20C40 8.95431 31.0457 0 20 0C8.95431 0 0 8.95431 0 20C0 31.0457 8.95431 40 20 40Z" fill="#00B086"/>
<path d="M20.0058 11.6011C17.0953 11.6011 14.187 12.4557 11.6722 14.166H6.91833L9.05815 16.4933C8.0832 17.3816 7.39973 18.544 7.09754 19.8279C6.79536 21.1117 6.88858 22.457 7.36497 23.6868C7.84136 24.9167 8.67864 25.9738 9.7668 26.7191C10.855 27.4644 12.1431 27.8631 13.4621 27.8628C15.1101 27.8643 16.6974 27.241 17.9041 26.1187L19.9992 28.3992L22.0944 26.1209C23.3004 27.242 24.8865 27.8645 26.5332 27.8628C28.2674 27.8628 29.9307 27.1741 31.1572 25.9479C32.3837 24.7218 33.073 23.0588 33.0736 21.3246C33.0746 20.415 32.8854 19.5153 32.518 18.6833C32.1506 17.8513 31.6132 17.1053 30.9403 16.4933L33.0802 14.166H28.3383C25.8815 12.4935 22.9779 11.5997 20.0058 11.6011ZM19.9992 13.7376C21.6682 13.7376 23.3382 14.0679 24.909 14.722C22.1173 15.7902 19.9992 18.2887 19.9992 21.1992C19.9992 18.2876 17.8823 15.7902 15.0895 14.722C16.6452 14.0736 18.3138 13.7383 19.9992 13.7376ZM13.461 16.901C14.042 16.901 14.6174 17.0155 15.1542 17.2378C15.691 17.4602 16.1788 17.7861 16.5897 18.197C17.0005 18.6078 17.3264 19.0956 17.5488 19.6324C17.7711 20.1692 17.8856 20.7446 17.8856 21.3256C17.8856 21.9067 17.7711 22.4821 17.5488 23.0189C17.3264 23.5557 17.0005 24.0435 16.5897 24.4543C16.1788 24.8652 15.691 25.1911 15.1542 25.4135C14.6174 25.6358 14.042 25.7503 13.461 25.7503C12.2875 25.7503 11.1621 25.2841 10.3323 24.4543C9.50252 23.6245 9.03635 22.4991 9.03635 21.3256C9.03635 20.1522 9.50252 19.0267 10.3323 18.197C11.1621 17.3672 12.2875 16.901 13.461 16.901ZM26.5332 16.9032C27.114 16.903 27.6892 17.0172 28.2259 17.2393C28.7626 17.4613 29.2503 17.787 29.6612 18.1975C30.072 18.6081 30.398 19.0955 30.6205 19.6321C30.843 20.1686 30.9576 20.7437 30.9578 21.3246C30.958 21.9054 30.8438 22.4806 30.6217 23.0173C30.3997 23.554 30.074 24.0417 29.6635 24.4526C29.2529 24.8634 28.7655 25.1894 28.2289 25.4119C27.6924 25.6343 27.1173 25.749 26.5364 25.7492C25.3634 25.7496 24.2382 25.284 23.4084 24.4549C22.5787 23.6257 22.1123 22.5009 22.1118 21.3278C22.1114 20.1548 22.577 19.0296 23.4061 18.1998C24.2353 17.37 25.3601 16.9036 26.5332 16.9032ZM13.461 19.0071C12.8458 19.0071 12.2557 19.2514 11.8207 19.6865C11.3857 20.1215 11.1413 20.7115 11.1413 21.3267C11.1413 21.942 11.3857 22.532 11.8207 22.967C12.2557 23.402 12.8458 23.6464 13.461 23.6464C14.0762 23.6464 14.6662 23.402 15.1012 22.967C15.5363 22.532 15.7807 21.942 15.7807 21.3267C15.7807 20.7115 15.5363 20.1215 15.1012 19.6865C14.6662 19.2514 14.0762 19.0071 13.461 19.0071ZM26.5332 19.0071C25.9179 19.0071 25.3279 19.2514 24.8929 19.6865C24.4579 20.1215 24.2135 20.7115 24.2135 21.3267C24.2135 21.942 24.4579 22.532 24.8929 22.967C25.3279 23.402 25.9179 23.6464 26.5332 23.6464C27.1484 23.6464 27.7384 23.402 28.1734 22.967C28.6085 22.532 28.8528 21.942 28.8528 21.3267C28.8528 20.7115 28.6085 20.1215 28.1734 19.6865C27.7384 19.2514 27.1484 19.0071 26.5332 19.0071Z" fill="white"/>
<path fill-rule="evenodd" clip-rule="evenodd" d="M13.4813 21.9495C13.8562 21.9495 14.1601 21.6456 14.1601 21.2708C14.1601 20.8959 13.8562 20.592 13.4813 20.592C13.1065 20.592 12.8026 20.8959 12.8026 21.2708C12.8026 21.6456 13.1065 21.9495 13.4813 21.9495ZM13.4813 22.8545C14.356 22.8545 15.0651 22.1454 15.0651 21.2708C15.0651 20.3961 14.356 19.687 13.4813 19.687C12.6066 19.687 11.8976 20.3961 11.8976 21.2708C11.8976 22.1454 12.6066 22.8545 13.4813 22.8545Z" fill="#00B086"/>
<path fill-rule="evenodd" clip-rule="evenodd" d="M26.5259 21.9495C26.9007 21.9495 27.2046 21.6456 27.2046 21.2708C27.2046 20.8959 26.9007 20.592 26.5259 20.592C26.151 20.592 25.8471 20.8959 25.8471 21.2708C25.8471 21.6456 26.151 21.9495 26.5259 21.9495ZM26.5259 22.8545C27.4006 22.8545 28.1096 22.1454 28.1096 21.2708C28.1096 20.3961 27.4006 19.687 26.5259 19.687C25.6512 19.687 24.9421 20.3961 24.9421 21.2708C24.9421 22.1454 25.6512 22.8545 26.5259 22.8545Z" fill="#00B086"/>
</svg>
