<svg width="62" height="66" viewBox="0 0 62 66" fill="none" xmlns="http://www.w3.org/2000/svg">
<g filter="url(#filter0_d_9071_106)">
<path d="M56.1087 46.2063C59.3227 43.9058 61.4436 41.5074 61.6069 41.3116C62.0963 40.7405 62.129 39.8921 61.6721 39.2721C61.5253 39.06 59.0781 35.8621 55.1624 33.4963C60.5138 26.1378 61.9168 17.05 61.9821 16.6421C62.0474 16.2016 61.9332 15.761 61.6558 15.4021C61.3948 15.0594 60.9869 14.831 60.5464 14.7821C60.3832 14.7494 56.7939 14.3742 52.1768 15.2716C52.4704 7.65212 49.697 1.27258 49.5664 0.978914C49.387 0.554688 49.0443 0.244688 48.6365 0.0978946C48.2122 -0.0489964 47.7391 -0.032664 47.3476 0.179458C47.0865 0.310017 41.8331 3.01839 37.3792 8.15789C35.0624 3.65472 32.3868 0.734227 32.191 0.522122C31.8811 0.19579 31.4568 0 31 0C30.5432 0 30.119 0.19579 29.809 0.522122C29.6785 0.668915 26.9702 3.60572 24.6372 8.17423C20.1668 3.03472 14.9135 0.31 14.6525 0.179458C14.2608 -0.0326477 13.7877 -0.0489801 13.3635 0.0978946C12.9556 0.244688 12.6131 0.554688 12.4335 0.978914C12.3031 1.27258 9.52952 7.65212 9.82317 15.2716C5.20601 14.3742 1.6167 14.7494 1.4536 14.7821C1.01306 14.831 0.605188 15.0594 0.344197 15.4021C0.0668756 15.761 -0.0473459 16.2016 0.0178813 16.6421C0.0831085 17.05 1.48626 26.1216 6.82119 33.4799C2.90566 35.8457 0.474749 39.06 0.327866 39.2721C-0.128904 39.8921 -0.096339 40.7405 0.393094 41.3116C0.556308 41.5074 2.67722 43.9058 5.89124 46.2063C2.00837 47.8379 0.0015504 49.8447 0.0015504 52.2105C0.0015504 58.6389 15.5987 62 31 62C46.4013 62 61.9984 58.6389 61.9984 52.2105C61.9984 49.8447 59.9917 47.8379 56.1087 46.2063ZM58.1807 40.1858C56.0272 42.3068 50.5943 47.1037 44.9167 47.3158C39.4349 47.5116 35.0135 43.3836 33.1862 41.3932C35.3398 39.2721 40.7726 34.4753 46.4666 34.2632C51.9484 34.0837 56.3534 38.1952 58.1807 40.1858ZM50.8227 18.9426C53.8736 18.0942 56.6634 17.9474 58.3927 17.9474C57.7239 20.9331 55.9293 27.0678 52.1604 32.0279C50.3985 31.3589 48.4407 30.9347 46.3361 31.0163C41.6862 31.1794 37.3955 33.692 34.3283 36.0578C34.5893 35.3236 34.8666 34.5568 35.1929 33.7737C36.7748 29.9619 39.0117 26.293 42.0941 23.511C44.4761 21.4063 47.4128 19.8726 50.8227 18.9426ZM47.2334 4.02995C48.0328 6.44475 49.2401 11.1274 48.8485 16.1689C45.7813 17.1316 43.0731 18.5674 40.7564 20.4273C40.6422 17.1968 39.908 14.1621 38.8801 11.5026C41.7026 7.84789 45.2267 5.2863 47.2334 4.02995ZM26.497 11.8778C27.9164 8.48423 29.7927 5.75942 31 4.19317C33.1699 7.01577 37.526 13.64 37.526 21.2105C37.526 22.0589 37.4607 22.9073 37.3628 23.7721C35.3235 26.2032 33.5778 29.14 32.191 32.5337C31.7178 33.6595 31.3426 34.72 31 35.7479C30.6574 34.72 30.2821 33.6595 29.809 32.5337C28.4223 29.14 26.6766 26.2032 24.6372 23.7721C24.5393 22.9073 24.474 22.0589 24.474 21.2105C24.474 18.192 25.1593 15.0594 26.497 11.8778ZM14.7666 4.02995C16.7897 5.30263 20.3137 7.86423 23.1525 11.5353C21.9942 14.5373 21.3415 17.5231 21.26 20.4273C18.927 18.5674 16.2186 17.1316 13.1514 16.1689C12.7599 11.1274 13.9672 6.44475 14.7666 4.02995ZM3.60719 17.9474C5.35291 17.9474 8.12647 18.0942 11.1936 18.9426C14.5871 19.8726 17.5238 21.4062 19.8895 23.5109C23.0073 26.2848 25.2198 29.9488 26.807 33.7737C27.1333 34.5732 27.4107 35.3236 27.6718 36.0579C24.6045 33.6921 20.3137 31.1795 15.664 31.0163C13.5429 30.9184 11.5852 31.3426 9.82317 32.0116C6.07075 27.0678 4.27607 20.9331 3.60719 17.9474ZM3.8193 40.1858C5.63025 38.1952 10.0353 34.0674 15.5334 34.2632C21.2273 34.4753 26.6602 39.2721 28.8138 41.3932C26.9865 43.3836 22.5488 47.5116 17.0834 47.3158C11.3895 47.1037 5.95654 42.3068 3.8193 40.1858ZM31 58.7368C13.0535 58.7368 3.26454 54.4295 3.26454 52.2105C3.26454 51.5415 4.60239 49.9263 9.41532 48.3926C11.6994 49.5837 14.2771 50.4647 16.9691 50.5626C17.1486 50.5789 17.3117 50.5789 17.4749 50.5789C23.8377 50.5789 28.7648 46.2389 31 43.8405C33.2351 46.2389 38.1623 50.5789 44.5251 50.5789C44.6883 50.5789 44.8514 50.5789 45.0309 50.5626C47.7228 50.4647 50.3006 49.5837 52.5846 48.3926C57.3976 49.9263 58.7354 51.5415 58.7354 52.2105C58.7354 54.4295 48.9464 58.7368 31 58.7368Z" fill="#642360"/>
</g>
<defs>
<filter id="filter0_d_9071_106" x="0" y="0" width="62" height="66" filterUnits="userSpaceOnUse" color-interpolation-filters="sRGB">
<feFlood flood-opacity="0" result="BackgroundImageFix"/>
<feColorMatrix in="SourceAlpha" type="matrix" values="0 0 0 0 0 0 0 0 0 0 0 0 0 0 0 0 0 0 127 0" result="hardAlpha"/>
<feOffset dy="4"/>
<feComposite in2="hardAlpha" operator="out"/>
<feColorMatrix type="matrix" values="0 0 0 0 0.392157 0 0 0 0 0.137255 0 0 0 0 0.376471 0 0 0 0.24 0"/>
<feBlend mode="normal" in2="BackgroundImageFix" result="effect1_dropShadow_9071_106"/>
<feBlend mode="normal" in="SourceGraphic" in2="effect1_dropShadow_9071_106" result="shape"/>
</filter>
</defs>
</svg>
